<svg width="234" height="220" viewBox="0 0 234 220" fill="none" xmlns="http://www.w3.org/2000/svg">
<rect width="234" height="220" fill="#E5E5E5"/>
<rect width="117" height="110" fill="white" transform="scale(2)"/>
<path d="M53.2459 32.975C54.4158 31.2254 55 29.2994 55 27.1957C55 24.7608 54.0939 22.6459 52.28 20.8477C50.4654 19.0514 48.3167 18.1534 45.8343 18.1534H39.5319C40.6775 15.8135 41.2513 13.5441 41.2513 11.3461C41.2513 8.58041 40.8324 6.38235 39.9976 4.7513C39.1619 3.11977 37.9442 1.92052 36.3446 1.15194C34.7447 0.383731 32.9429 0 30.9377 0C29.7197 0 28.6458 0.437254 27.7148 1.31213C26.6885 2.30474 25.9484 3.58149 25.4951 5.14162C25.0414 6.70125 24.6772 8.19656 24.4029 9.62667C24.1286 11.0567 23.7045 12.0671 23.1318 12.658C21.9618 13.9108 20.6848 15.424 19.3001 17.1966C16.8891 20.2928 15.2536 22.1249 14.3946 22.6924H4.58342C3.3182 22.6924 2.23784 23.1362 1.3426 24.0219C0.447744 24.9085 0 25.9781 0 27.231V49.9224C0 51.1753 0.447242 52.2445 1.3426 53.131C2.23834 54.0176 3.3182 54.4612 4.58342 54.4612H14.8954C15.4207 54.4612 17.0676 54.9338 19.8368 55.8794C22.7732 56.8959 25.3573 57.6699 27.5892 58.2019C29.8212 58.7339 32.0832 59 34.3751 59H37.7043H38.9941C42.3598 59 45.0691 58.048 47.1223 56.145C49.1748 54.242 50.1898 51.6479 50.1662 48.3623C51.5985 46.5422 52.3145 44.4385 52.3145 42.0514C52.3145 41.5317 52.2793 41.0235 52.2073 40.5267C53.1141 38.9436 53.5686 37.2416 53.5686 35.4214C53.5682 34.5704 53.461 33.7545 53.2459 32.975ZM8.48656 49.2491C8.03305 49.6979 7.49601 49.9232 6.87531 49.9232C6.25449 49.9232 5.71732 49.6981 5.26369 49.2491C4.8103 48.8005 4.58342 48.2685 4.58342 47.6534C4.58342 47.0389 4.8098 46.5073 5.26369 46.058C5.71783 45.6088 6.25449 45.3843 6.87531 45.3843C7.49601 45.3843 8.03305 45.6088 8.48656 46.058C8.9402 46.5071 9.16708 47.0388 9.16708 47.6534C9.16708 48.2685 8.9402 48.8005 8.48656 49.2491ZM49.6484 30.1047C49.1351 31.1918 48.4963 31.7473 47.7325 31.7707C48.0904 32.1726 48.3891 32.7346 48.6279 33.4548C48.8664 34.176 48.9849 34.8317 48.9849 35.4229C48.9849 37.0531 48.3532 38.4599 47.0879 39.6414C47.518 40.3974 47.7326 41.2133 47.7326 42.0874C47.7326 42.9621 47.5241 43.8307 47.106 44.6933C46.6888 45.5552 46.1214 46.1758 45.4055 46.5538C45.5248 47.2628 45.584 47.9248 45.584 48.5393C45.584 52.4865 43.2921 54.4602 38.7081 54.4602H34.3767C31.2488 54.4602 27.1673 53.598 22.1298 51.872C22.0103 51.8249 21.6647 51.7003 21.0914 51.4997C20.5181 51.2992 20.0945 51.1513 19.8199 51.057C19.5452 50.9618 19.1278 50.8259 18.5664 50.6491C18.0052 50.4714 17.5522 50.3412 17.2058 50.2589C16.8599 50.1764 16.4657 50.0996 16.0245 50.0285C15.583 49.9576 15.2069 49.9224 14.8966 49.9224H13.7508V27.2318H14.8966C15.2785 27.2318 15.7021 27.1252 16.1677 26.9129C16.6331 26.7001 17.1108 26.381 17.6001 25.9555C18.0896 25.5299 18.5488 25.1104 18.9787 24.6965C19.4085 24.2829 19.8858 23.763 20.4112 23.1368C20.9364 22.5102 21.3481 22.0081 21.6467 21.6299C21.945 21.2517 22.3208 20.7669 22.7745 20.176C23.2279 19.5853 23.5027 19.2306 23.5981 19.1123C24.9109 17.5052 25.8299 16.4298 26.3551 15.8858C27.3338 14.8697 28.0439 13.5756 28.4855 12.0037C28.9276 10.4315 29.2916 8.94825 29.5771 7.5539C29.8633 6.15943 30.3174 5.15453 30.9388 4.53994C33.23 4.53994 34.7582 5.09517 35.5219 6.20625C36.2854 7.31708 36.6675 9.03096 36.6675 11.3474C36.6675 12.7418 36.094 14.6386 34.948 17.0376C33.8024 19.4369 33.23 21.322 33.23 22.6929H45.8339C47.0288 22.6929 48.0906 23.1476 49.0212 24.0582C49.9525 24.9681 50.4187 26.0256 50.4187 27.2315C50.4183 28.0587 50.1616 29.0161 49.6484 30.1047Z" transform="translate(62 52) scale(2)" fill="black"/>
<circle cx="52" cy="52" r="50" transform="translate(12 6) scale(2)" stroke="black" stroke-width="4"/>
</svg>
